<?xml version="1.0" standalone="no"?><!DOCTYPE svg PUBLIC "-//W3C//DTD SVG 1.1//EN" "http://www.w3.org/Graphics/SVG/1.1/DTD/svg11.dtd"><svg t="1557887532989" class="icon" style="" viewBox="0 0 1024 1024" version="1.1" xmlns="http://www.w3.org/2000/svg" p-id="2841" xmlns:xlink="http://www.w3.org/1999/xlink" width="200" height="200"><defs><style type="text/css"></style></defs><path d="M512 0C230.4 0 0 230.4 0 512s230.4 512 512 512 512-230.4 512-512S793.6 0 512 0zM512 960c-249.6 0-448-198.4-448-448 0-249.6 198.4-448 448-448 249.6 0 448 198.4 448 448C960 761.6 761.6 960 512 960z" p-id="2842"></path><path d="M556.8 512l179.2-179.2c12.8-12.8 12.8-32 0-44.8-12.8-12.8-32-12.8-44.8 0L512 467.2 332.8 288C320 275.2 300.8 275.2 288 288S275.2 320 288 332.8L467.2 512l-179.2 179.2c-12.8 12.8-12.8 32 0 44.8s32 12.8 44.8 0L512 556.8l179.2 179.2c12.8 12.8 32 12.8 44.8 0 12.8-12.8 12.8-32 0-44.8L556.8 512z" p-id="2843"></path></svg>